<svg viewBox="0 0 900 390" xmlns="http://www.w3.org/2000/svg" font-family="Arial, sans-serif">
  <rect width="900" height="390" fill="#f4f6f8"/>
  <text x="108" y="72" font-size="12" font-weight="bold" fill="#222" text-anchor="end">Delivery</text>
  <text x="108" y="150" font-size="12" font-weight="bold" fill="#222" text-anchor="end">Phishing Pages</text>
  <text x="108" y="238" font-size="12" font-weight="bold" fill="#222" text-anchor="end">Exfil</text>
  <text x="108" y="310" font-size="12" font-weight="bold" fill="#222" text-anchor="end">Hosting</text>
  <text x="108" y="368" font-size="12" font-weight="bold" fill="#222" text-anchor="end">Tooling</text>
  <line x1="115" y1="50" x2="860" y2="50" stroke="#ccc" stroke-width="1"/>
  <line x1="115" y1="115" x2="860" y2="115" stroke="#ccc" stroke-width="1"/>
  <line x1="115" y1="200" x2="860" y2="200" stroke="#ccc" stroke-width="1"/>
  <line x1="115" y1="275" x2="860" y2="275" stroke="#ccc" stroke-width="1"/>
  <line x1="115" y1="345" x2="860" y2="345" stroke="#ccc" stroke-width="1"/>
  <line x1="115" y1="385" x2="860" y2="385" stroke="#ccc" stroke-width="1"/>
  <rect x="120" y="57" width="250" height="50" fill="#1a5276" rx="2"/>
  <text x="245" y="78" font-size="10" font-weight="bold" fill="white" text-anchor="middle">Phishing Email</text>
  <text x="245" y="92" font-size="9" fill="#aed6f1" text-anchor="middle">microsofft-login[.]com sender</text>
  <rect x="375" y="57" width="250" height="50" fill="#2980b9" rx="2"/>
  <text x="500" y="78" font-size="10" font-weight="bold" fill="white" text-anchor="middle">Typosquatted Domains</text>
  <text x="500" y="92" font-size="9" fill="#d6eaf8" text-anchor="middle">Namecheap / NameSilo bulk registered</text>
  <rect x="120" y="122" width="300" height="70" fill="#1a5276" rx="2"/>
  <text x="270" y="148" font-size="10" font-weight="bold" fill="white" text-anchor="middle">Primary Phishing Page</text>
  <text x="270" y="162" font-size="9" fill="#aed6f1" text-anchor="middle">microsofft-login[.]com</text>
  <text x="270" y="176" font-size="9" fill="#aed6f1" text-anchor="middle">185.220.101.47 - AS205100</text>
  <rect x="425" y="122" width="220" height="70" fill="#2980b9" rx="2"/>
  <text x="535" y="148" font-size="10" font-weight="bold" fill="white" text-anchor="middle">Backup Phishing Page</text>
  <text x="535" y="162" font-size="9" fill="#d6eaf8" text-anchor="middle">ms-secure-login[.]org</text>
  <text x="535" y="176" font-size="9" fill="#d6eaf8" text-anchor="middle">45.142.212.100 - AS208091</text>
  <rect x="650" y="122" width="205" height="70" fill="#85c1e9" rx="2"/>
  <text x="752" y="148" font-size="10" font-weight="bold" fill="#1a3a4a" text-anchor="middle">Redirect Hops</text>
  <text x="752" y="162" font-size="9" fill="#1a3a4a" text-anchor="middle">login-microsoftonline[.]net</text>
  <text x="752" y="176" font-size="9" fill="#1a3a4a" text-anchor="middle">account-microsoft[.]live</text>
  <rect x="120" y="207" width="360" height="60" fill="#c0392b" rx="2"/>
  <text x="300" y="230" font-size="10" font-weight="bold" fill="white" text-anchor="middle">Credential Exfil Receiver</text>
  <text x="300" y="244" font-size="9" fill="#fadbd8" text-anchor="middle">office365-verify[.]com + msonline-auth[.]com</text>
  <text x="300" y="258" font-size="9" fill="#fadbd8" text-anchor="middle">194.165.16.78/81 - AS47890</text>
  <rect x="485" y="207" width="370" height="60" fill="#d98880" rx="2"/>
  <text x="670" y="230" font-size="10" font-weight="bold" fill="white" text-anchor="middle">Session Token Capture</text>
  <text x="670" y="244" font-size="9" fill="white" text-anchor="middle">evilginx2 reverse proxy</text>
  <text x="670" y="258" font-size="9" fill="white" text-anchor="middle">bypasses MFA</text>
  <rect x="120" y="282" width="220" height="55" fill="#1a5276" rx="2"/>
  <text x="230" y="303" font-size="10" font-weight="bold" fill="white" text-anchor="middle">AS205100 F3 Netze DE</text>
  <text x="230" y="317" font-size="9" fill="#aed6f1" text-anchor="middle">Bulletproof hosting</text>
  <rect x="345" y="282" width="220" height="55" fill="#1a5276" rx="2"/>
  <text x="455" y="303" font-size="10" font-weight="bold" fill="white" text-anchor="middle">AS208091 Proton66 RU</text>
  <text x="455" y="317" font-size="9" fill="#aed6f1" text-anchor="middle">Bulletproof hosting</text>
  <rect x="570" y="282" width="285" height="55" fill="#2980b9" rx="2"/>
  <text x="712" y="303" font-size="10" font-weight="bold" fill="white" text-anchor="middle">AS47890 UNMANAGED NL</text>
  <text x="712" y="317" font-size="9" fill="#d6eaf8" text-anchor="middle">Exfil hosting</text>
  <rect x="120" y="352" width="735" height="28" fill="#1a5276" rx="2"/>
  <text x="487" y="370" font-size="10" font-weight="bold" fill="white" text-anchor="middle">evilginx2 (AitM) · nginx 1.18 · Let Encrypt TLS · Privacy WHOIS</text>
</svg>